<svg xmlns="http://www.w3.org/2000/svg" width="19" height="20" viewBox="0 0 19 20" fill="none">
  <path d="M17.7774 16.2L15.8097 17.1806L13.9774 12.9032H8.3903C8.04809 12.9032 7.71989 12.7673 7.47791 12.5253C7.23592 12.2833 7.09998 11.9551 7.09998 11.6129V7.74194C7.09998 7.39972 7.23592 7.07152 7.47791 6.82954C7.71989 6.58756 8.04809 6.45161 8.3903 6.45161C8.73252 6.45161 9.06071 6.58756 9.3027 6.82954C9.54468 7.07152 9.68062 7.39972 9.68062 7.74194V10.3226H14.1968V9.03226H10.9709V7.74194C10.9709 7.05751 10.6991 6.40111 10.2151 5.91714C9.73113 5.43318 9.07473 5.16129 8.3903 5.16129C7.70587 5.16129 7.04947 5.43318 6.56551 5.91714C6.08154 6.40111 5.80966 7.05751 5.80966 7.74194V8.3871C4.71647 8.38649 3.64531 8.69451 2.71942 9.27571C1.79353 9.85691 1.05052 10.6877 0.575872 11.6725C0.101222 12.6572 -0.0857851 13.756 0.0363637 14.8423C0.158513 15.9287 0.584855 16.9585 1.26634 17.8133C1.94783 18.668 2.85678 19.3131 3.88862 19.6741C4.92046 20.0352 6.03327 20.0977 7.09903 19.8543C8.16479 19.6109 9.1402 19.0717 9.91305 18.2985C10.6859 17.5254 11.2248 16.5497 11.4677 15.4839H10.1387C9.8994 16.2865 9.44165 17.0067 8.81658 17.5641C8.19151 18.1215 7.42376 18.4942 6.59911 18.6403C5.77446 18.7865 4.9254 18.7005 4.14682 18.3919C3.36823 18.0834 2.6908 17.5644 2.1902 16.8929C1.68961 16.2215 1.38559 15.4241 1.3121 14.5898C1.23862 13.7555 1.39857 12.9172 1.77409 12.1686C2.14961 11.42 2.72589 10.7906 3.43854 10.3507C4.1512 9.91073 4.97215 9.67764 5.80966 9.67742V11.6129C5.80966 12.2973 6.08154 12.9537 6.56551 13.4377C7.04947 13.9217 7.70587 14.1935 8.3903 14.1935H13.1258L15.1645 18.9484L18.358 17.3484L17.7774 16.2ZM8.71288 4.51613C8.26628 4.51613 7.82971 4.3837 7.45837 4.13558C7.08703 3.88746 6.79761 3.5348 6.6267 3.12219C6.45579 2.70958 6.41108 2.25556 6.49821 1.81754C6.58533 1.37952 6.80039 0.977169 7.11619 0.661373C7.43199 0.345577 7.83433 0.130517 8.27236 0.0433891C8.71038 -0.0437388 9.1644 0.000978381 9.57701 0.171886C9.98961 0.342793 10.3423 0.632215 10.5904 1.00355C10.8385 1.37489 10.9709 1.81146 10.9709 2.25807C10.9709 2.85694 10.733 3.43129 10.3096 3.85476C9.88611 4.27823 9.31176 4.51613 8.71288 4.51613ZM8.71288 1.29032C8.52148 1.29032 8.33438 1.34708 8.17523 1.45342C8.01609 1.55975 7.89205 1.71089 7.81881 1.88773C7.74556 2.06456 7.72639 2.25914 7.76373 2.44686C7.80108 2.63459 7.89324 2.80702 8.02859 2.94236C8.16393 3.0777 8.33636 3.16987 8.52409 3.20721C8.71181 3.24455 8.90639 3.22539 9.08322 3.15214C9.26005 3.0789 9.41119 2.95486 9.51753 2.79571C9.62387 2.63657 9.68062 2.44947 9.68062 2.25807C9.68062 2.0014 9.57866 1.75526 9.39718 1.57377C9.21569 1.39228 8.96954 1.29032 8.71288 1.29032Z" fill="url(#paint0_linear_2248_5317)"/>
  <defs>
    <linearGradient id="paint0_linear_2248_5317" x1="4.58951" y1="1.875" x2="16.146" y2="17.1972" gradientUnits="userSpaceOnUse">
      <stop stop-color="#97C72F"/>
      <stop offset="1" stop-color="#1CA2CC"/>
    </linearGradient>
  </defs>
</svg>
