<svg xmlns="http://www.w3.org/2000/svg" width="21" height="20" viewBox="0 0 21 20" fill="none">
  <path d="M10.2107 6C10.6527 6 11.0766 5.82441 11.3892 5.51185C11.7017 5.19928 11.8773 4.77536 11.8773 4.33333C11.8773 3.89131 11.7017 3.46738 11.3892 3.15482C11.0766 2.84226 10.6527 2.66667 10.2107 2.66667C9.76864 2.66667 9.34472 2.84226 9.03216 3.15482C8.71959 3.46738 8.544 3.89131 8.544 4.33333C8.544 4.77536 8.71959 5.19928 9.03216 5.51185C9.34472 5.82441 9.76864 6 10.2107 6ZM12.432 6.62533H8.068C7.248 6.62533 6.58333 7.29 6.58333 8.11V11.5473C6.58333 11.9067 6.85933 12.2153 7.218 12.232C7.30815 12.2363 7.39823 12.2223 7.4828 12.1908C7.56737 12.1593 7.64466 12.1109 7.70999 12.0487C7.77531 11.9864 7.82732 11.9115 7.86284 11.8285C7.89837 11.7456 7.91668 11.6563 7.91667 11.566V8.65133C7.91667 8.56275 7.95186 8.4778 8.01449 8.41516C8.07713 8.35252 8.16209 8.31733 8.25067 8.31733C8.33925 8.31733 8.4242 8.35252 8.48684 8.41516C8.54948 8.4778 8.58467 8.56275 8.58467 8.65133V16.648C8.58467 17.0073 8.86067 17.316 9.21933 17.3327C9.30948 17.337 9.39957 17.323 9.48414 17.2915C9.56871 17.26 9.646 17.2116 9.71132 17.1493C9.77665 17.087 9.82865 17.0122 9.86418 16.9292C9.8997 16.8462 9.91801 16.7569 9.918 16.6667V12.7653C9.918 12.6769 9.95312 12.5921 10.0156 12.5296C10.0781 12.4671 10.1629 12.432 10.2513 12.432C10.3397 12.432 10.4245 12.4671 10.487 12.5296C10.5495 12.5921 10.5847 12.6769 10.5847 12.7653V16.648C10.5847 17.0073 10.8607 17.316 11.2193 17.3327C11.3095 17.3371 11.3997 17.3231 11.4843 17.2917C11.569 17.2602 11.6464 17.2119 11.7118 17.1496C11.7772 17.0873 11.8292 17.0124 11.8648 16.9294C11.9004 16.8463 11.9187 16.757 11.9187 16.6667V8.65C11.9225 8.56444 11.9592 8.48365 12.0211 8.42445C12.083 8.36526 12.1653 8.33222 12.251 8.33222C12.3367 8.33222 12.419 8.36526 12.4809 8.42445C12.5428 8.48365 12.5795 8.56444 12.5833 8.65V11.5667C12.5833 11.6569 12.6016 11.7462 12.6372 11.8292C12.6727 11.9122 12.7247 11.987 12.79 12.0493C12.8553 12.1116 12.9326 12.16 13.0172 12.1915C13.1018 12.223 13.1919 12.237 13.282 12.2327C13.6407 12.2153 13.9167 11.9067 13.9167 11.548V8.11067C13.9168 7.91561 13.8784 7.72245 13.8039 7.5422C13.7293 7.36196 13.62 7.19817 13.4821 7.06018C13.3442 6.92219 13.1805 6.81271 13.0004 6.73799C12.8202 6.66326 12.6271 6.62542 12.432 6.62533Z" fill="url(#paint0_linear_2248_5332)"/>
  <path fill-rule="evenodd" clip-rule="evenodd" d="M3.58333 0C3.14559 0 2.71214 0.0862192 2.30772 0.253735C1.9033 0.421251 1.53584 0.666782 1.22631 0.976311C0.601189 1.60143 0.25 2.44928 0.25 3.33333V16.6667C0.25 17.5507 0.601189 18.3986 1.22631 19.0237C1.53584 19.3332 1.9033 19.5788 2.30772 19.7463C2.71214 19.9138 3.14559 20 3.58333 20H16.9167C17.8007 20 18.6486 19.6488 19.2737 19.0237C19.8988 18.3986 20.25 17.5507 20.25 16.6667V3.33333C20.25 2.89559 20.1638 2.46214 19.9963 2.05772C19.8288 1.6533 19.5832 1.28584 19.2737 0.976311C18.9642 0.666782 18.5967 0.421251 18.1923 0.253735C17.7879 0.0862192 17.3544 0 16.9167 0H3.58333ZM1.58333 3.33333C1.58333 2.8029 1.79405 2.29419 2.16912 1.91912C2.54419 1.54405 3.0529 1.33333 3.58333 1.33333H16.9167C17.4471 1.33333 17.9558 1.54405 18.3309 1.91912C18.706 2.29419 18.9167 2.8029 18.9167 3.33333V16.6667C18.9167 17.1971 18.706 17.7058 18.3309 18.0809C17.9558 18.456 17.4471 18.6667 16.9167 18.6667H3.58333C3.0529 18.6667 2.54419 18.456 2.16912 18.0809C1.79405 17.7058 1.58333 17.1971 1.58333 16.6667V3.33333Z" fill="url(#paint1_linear_2248_5332)"/>
  <defs>
    <linearGradient id="paint0_linear_2248_5332" x1="5.25" y1="1.875" x2="16.5" y2="18.125" gradientUnits="userSpaceOnUse">
      <stop stop-color="#97C72F"/>
      <stop offset="1" stop-color="#1CA2CC"/>
    </linearGradient>
    <linearGradient id="paint1_linear_2248_5332" x1="5.25" y1="1.875" x2="16.5" y2="18.125" gradientUnits="userSpaceOnUse">
      <stop stop-color="#97C72F"/>
      <stop offset="1" stop-color="#1CA2CC"/>
    </linearGradient>
  </defs>
</svg>
