<svg xmlns="http://www.w3.org/2000/svg" width="24" height="24" viewBox="0 0 24 24" fill="none">
  <path d="M12 0C5.3724 0 0 5.3724 0 12C0 18.6276 5.3724 24 12 24C18.6276 24 24 18.6276 24 12C24 5.3724 18.6276 0 12 0ZM12 2.4C14.5461 2.4 16.9879 3.41142 18.7882 5.21177C20.5886 7.01212 21.6 9.45392 21.6 12C21.6 14.5461 20.5886 16.9879 18.7882 18.7882C16.9879 20.5886 14.5461 21.6 12 21.6C9.45392 21.6 7.01212 20.5886 5.21178 18.7882C3.41143 16.9879 2.4 14.5461 2.4 12C2.4 9.45392 3.41143 7.01212 5.21178 5.21177C7.01212 3.41142 9.45392 2.4 12 2.4Z" fill="#BCBCBC"/>
  <path d="M12.0004 10.1669L15.8337 14.0002L17.0004 12.8336L12.0004 7.83358L7.00037 12.8336L8.16703 14.0002L12.0004 10.1669Z" fill="#BCBCBC"/>
</svg>
