<svg xmlns="http://www.w3.org/2000/svg" width="22" height="22" viewBox="0 0 22 22" fill="none">
  <path d="M2 11C2 14.771 2 18.657 3.318 19.828C4.636 21 6.758 21 11 21C15.243 21 17.364 21 18.682 19.828C20 18.657 20 14.771 20 11M13.66 13.202L19.668 11.4C20.263 11.221 20.561 11.132 20.75 10.918C20.787 10.8762 20.8205 10.8314 20.85 10.784C21 10.541 21 10.231 21 9.609C21 7.159 21 5.934 20.327 5.107C20.1976 4.94786 20.0521 4.80243 19.893 4.673C19.066 4 17.841 4 15.391 4H6.61C4.16 4 2.935 4 2.108 4.673C1.948 4.803 1.803 4.948 1.674 5.107C1 5.934 1 7.159 1 9.609C1 10.231 1 10.541 1.15 10.784C1.18 10.831 1.213 10.876 1.25 10.918C1.44 11.132 1.737 11.221 2.332 11.4L8.34 13.202M5.5 4C6.323 3.98 7.16 3.455 7.44 2.68L7.475 2.577L7.5 2.5C7.542 2.373 7.564 2.31 7.586 2.254C7.72726 1.90281 7.96529 1.59892 8.27241 1.37765C8.57954 1.15638 8.94315 1.02681 9.321 1.004C9.38 1 9.448 1 9.58 1H12.418C12.551 1 12.618 1 12.678 1.004C13.0558 1.02681 13.4195 1.15638 13.7266 1.37765C14.0337 1.59892 14.2717 1.90281 14.413 2.254C14.436 2.31 14.457 2.374 14.499 2.5L14.525 2.577C14.543 2.63 14.551 2.657 14.56 2.68C14.84 3.455 15.676 3.98 16.499 4M13 11.5H9C8.86739 11.5 8.74021 11.5527 8.64645 11.6464C8.55268 11.7402 8.5 11.8674 8.5 12V14.162C8.50002 14.2619 8.52994 14.3594 8.58591 14.4421C8.64187 14.5248 8.72131 14.5889 8.814 14.626L9.514 14.906C10.4679 15.2877 11.5321 15.2877 12.486 14.906L13.186 14.626C13.2787 14.5889 13.3581 14.5248 13.4141 14.4421C13.4701 14.3594 13.5 14.2619 13.5 14.162V12C13.5 11.8674 13.4473 11.7402 13.3536 11.6464C13.2598 11.5527 13.1326 11.5 13 11.5Z" stroke="url(#paint0_linear_2248_5327)" stroke-width="1.6"/>
  <defs>
    <linearGradient id="paint0_linear_2248_5327" x1="6" y1="2.875" x2="17.25" y2="19.125" gradientUnits="userSpaceOnUse">
      <stop stop-color="#97C72F"/>
      <stop offset="1" stop-color="#1CA2CC"/>
    </linearGradient>
  </defs>
</svg>
