<svg xmlns="http://www.w3.org/2000/svg" width="20" height="21" viewBox="0 0 20 21" fill="none">
  <path d="M10 20.2793C4.477 20.2793 0 15.8023 0 10.2793C0 4.7563 4.477 0.279297 10 0.279297C15.523 0.279297 20 4.7563 20 10.2793C20 15.8023 15.523 20.2793 10 20.2793ZM10 18.2793C12.1217 18.2793 14.1566 17.4364 15.6569 15.9362C17.1571 14.4359 18 12.401 18 10.2793C18 8.15757 17.1571 6.12273 15.6569 4.62244C14.1566 3.12215 12.1217 2.2793 10 2.2793C7.87827 2.2793 5.84344 3.12215 4.34315 4.62244C2.84285 6.12273 2 8.15757 2 10.2793C2 12.401 2.84285 14.4359 4.34315 15.9362C5.84344 17.4364 7.87827 18.2793 10 18.2793ZM11 10.2793H15V12.2793H9V5.2793H11V10.2793Z" fill="url(#paint0_linear_2182_1151)"/>
  <defs>
    <linearGradient id="paint0_linear_2182_1151" x1="5" y1="2.1543" x2="16.25" y2="18.4043" gradientUnits="userSpaceOnUse">
      <stop stop-color="#97C72F"/>
      <stop offset="1" stop-color="#1CA2CC"/>
    </linearGradient>
  </defs>
</svg>
