<svg xmlns="http://www.w3.org/2000/svg" width="16" height="16" viewBox="0 0 16 16" fill="none">
  <path fill-rule="evenodd" clip-rule="evenodd" d="M0.000976562 8C0.000976562 3.5816 3.58258 0 8.00098 0C12.4194 0 16.001 3.5816 16.001 8C16.001 12.4184 12.4194 16 8.00098 16C3.58258 16 0.000976562 12.4184 0.000976562 8ZM8.00098 1.6C6.30359 1.6 4.67573 2.27428 3.47549 3.47452C2.27526 4.67475 1.60098 6.30261 1.60098 8C1.60098 9.69739 2.27526 11.3253 3.47549 12.5255C4.67573 13.7257 6.30359 14.4 8.00098 14.4C9.69836 14.4 11.3262 13.7257 12.5265 12.5255C13.7267 11.3253 14.401 9.69739 14.401 8C14.401 6.30261 13.7267 4.67475 12.5265 3.47452C11.3262 2.27428 9.69836 1.6 8.00098 1.6Z" fill="url(#paint0_linear_2499_782)"/>
  <path fill-rule="evenodd" clip-rule="evenodd" d="M5.74136 4.60608C5.59133 4.45605 5.38785 4.37177 5.17567 4.37177C4.9635 4.37177 4.76002 4.45605 4.60999 4.60608C4.45996 4.75611 4.37567 4.9596 4.37567 5.17177C4.37567 5.38394 4.45996 5.58743 4.60999 5.73745L6.87273 8.0002L4.60999 10.2629C4.45996 10.413 4.37568 10.6164 4.37568 10.8286C4.37568 11.0408 4.45996 11.2443 4.60999 11.3943C4.76002 11.5443 4.9635 11.6286 5.17567 11.6286C5.38785 11.6286 5.59133 11.5443 5.74136 11.3943L8.0041 9.13157L10.2668 11.3943C10.4169 11.5443 10.6204 11.6286 10.8325 11.6286C11.0447 11.6286 11.2482 11.5443 11.3982 11.3943C11.5482 11.2443 11.6325 11.0408 11.6325 10.8286C11.6325 10.6164 11.5482 10.413 11.3982 10.2629L9.13547 8.0002L11.3982 5.73745C11.5482 5.58742 11.6325 5.38394 11.6325 5.17177C11.6325 4.95959 11.5482 4.75611 11.3982 4.60608C11.2482 4.45605 11.0447 4.37177 10.8325 4.37177C10.6204 4.37177 10.4169 4.45605 10.2668 4.60608L8.0041 6.86882L5.74136 4.60608Z" fill="url(#paint1_linear_2499_782)"/>
  <defs>
    <linearGradient id="paint0_linear_2499_782" x1="8.00098" y1="0" x2="8.00098" y2="16" gradientUnits="userSpaceOnUse">
      <stop stop-color="#84C030"/>
      <stop offset="1" stop-color="#23A4BF"/>
    </linearGradient>
    <linearGradient id="paint1_linear_2499_782" x1="8.00098" y1="0" x2="8.00098" y2="16" gradientUnits="userSpaceOnUse">
      <stop stop-color="#84C030"/>
      <stop offset="1" stop-color="#23A4BF"/>
    </linearGradient>
  </defs>
</svg>
