<svg xmlns="http://www.w3.org/2000/svg" width="22" height="20" viewBox="0 0 22 20" fill="none">
  <path d="M10.7364 9.4077C12.6819 9.4077 14.1951 7.82246 14.1951 5.87694C14.1951 3.93141 12.6099 2.41823 10.6644 2.41823C8.71883 2.41823 7.20564 4.00347 7.20564 5.87694C7.20564 7.82246 8.79089 9.4077 10.7364 9.4077ZM10.6644 3.85936C10.7364 3.85936 10.7364 3.85936 10.6644 3.85936C11.8173 3.85936 12.754 4.79609 12.754 5.94899C12.754 7.1019 11.8173 7.96657 10.6644 7.96657C9.51145 7.96657 8.64677 7.02984 8.64677 5.94899C8.64677 4.79609 9.58351 3.85936 10.6644 3.85936Z" fill="url(#paint0_linear_2248_5339)"/>
  <path d="M21.4008 8.97536C20.0317 7.7504 18.2303 7.1019 16.3568 7.17395H15.7804C15.6362 7.7504 15.4201 8.2548 15.1319 8.68714C15.5642 8.61508 15.9245 8.61508 16.3568 8.61508C17.7259 8.54303 19.095 8.97536 20.1758 9.76798V14.956H21.6169V9.19153L21.4008 8.97536Z" fill="url(#paint1_linear_2248_5339)"/>
  <path d="M14.6995 2.56234C15.0598 1.69766 16.0686 1.26532 17.0053 1.62561C17.87 1.98589 18.3023 2.99468 17.9421 3.93141C17.6538 4.57992 17.0053 5.01226 16.3568 5.01226C16.2127 5.01226 15.9965 5.01226 15.8524 4.9402C15.9245 5.30049 15.9245 5.66077 15.9245 5.94899V6.38133C16.0686 6.38133 16.2127 6.45339 16.3568 6.45339C18.1582 6.45339 19.5994 5.01226 19.5994 3.28291C19.5994 1.48149 18.1582 0.0403652 16.4289 0.0403652C15.276 0.0403652 14.2672 0.616817 13.6907 1.62561C14.051 1.84178 14.4113 2.13 14.6995 2.56234Z" fill="url(#paint2_linear_2248_5339)"/>
  <path d="M6.48508 8.75919C6.19685 8.32686 5.98068 7.82246 5.83657 7.24601H5.26012C3.38665 7.17395 1.58524 7.82246 0.216169 8.97536L0 9.19153V14.956H1.44113V9.76798C2.59403 8.97536 3.89105 8.54303 5.26012 8.61508C5.69246 8.61508 6.1248 8.68714 6.48508 8.75919Z" fill="url(#paint3_linear_2248_5339)"/>
  <path d="M5.26012 6.38133C5.40423 6.38133 5.54835 6.38133 5.69246 6.30928V5.87694C5.69246 5.51665 5.69246 5.15637 5.76452 4.86815C5.6204 4.9402 5.40423 4.9402 5.26012 4.9402C4.32339 4.9402 3.53077 4.14758 3.53077 3.21085C3.53077 2.27411 4.32339 1.48149 5.26012 1.48149C5.98068 1.48149 6.62919 1.91383 6.91742 2.56234C7.20564 2.20206 7.63798 1.84178 7.99827 1.55355C7.06153 0.0403653 5.11601 -0.46403 3.60282 0.472704C2.08964 1.40944 1.58524 3.35496 2.52198 4.86815C3.09843 5.80488 4.10722 6.38133 5.26012 6.38133Z" fill="url(#paint4_linear_2248_5339)"/>
  <path d="M16.645 13.2988L16.5009 13.0826C15.0598 11.4973 13.0422 10.5606 10.8805 10.6327C8.71883 10.5606 6.62919 11.4973 5.18806 13.0826L5.04395 13.2988V18.775C5.04395 19.4235 5.54835 20 6.26891 20H15.4921C16.1406 20 16.7171 19.4235 16.7171 18.775V13.2988H16.645ZM15.2039 18.5589H6.48508V13.8031C7.63798 12.6502 9.22322 12.0738 10.8805 12.0738C12.4658 12.0017 14.051 12.6502 15.2039 13.8031V18.5589Z" fill="url(#paint5_linear_2248_5339)"/>
  <defs>
    <linearGradient id="paint0_linear_2248_5339" x1="5.40423" y1="1.875" x2="16.3221" y2="18.9203" gradientUnits="userSpaceOnUse">
      <stop stop-color="#97C72F"/>
      <stop offset="1" stop-color="#1CA2CC"/>
    </linearGradient>
    <linearGradient id="paint1_linear_2248_5339" x1="5.40423" y1="1.875" x2="16.3221" y2="18.9203" gradientUnits="userSpaceOnUse">
      <stop stop-color="#97C72F"/>
      <stop offset="1" stop-color="#1CA2CC"/>
    </linearGradient>
    <linearGradient id="paint2_linear_2248_5339" x1="5.40423" y1="1.875" x2="16.3221" y2="18.9203" gradientUnits="userSpaceOnUse">
      <stop stop-color="#97C72F"/>
      <stop offset="1" stop-color="#1CA2CC"/>
    </linearGradient>
    <linearGradient id="paint3_linear_2248_5339" x1="5.40423" y1="1.875" x2="16.3221" y2="18.9203" gradientUnits="userSpaceOnUse">
      <stop stop-color="#97C72F"/>
      <stop offset="1" stop-color="#1CA2CC"/>
    </linearGradient>
    <linearGradient id="paint4_linear_2248_5339" x1="5.40423" y1="1.875" x2="16.3221" y2="18.9203" gradientUnits="userSpaceOnUse">
      <stop stop-color="#97C72F"/>
      <stop offset="1" stop-color="#1CA2CC"/>
    </linearGradient>
    <linearGradient id="paint5_linear_2248_5339" x1="5.40423" y1="1.875" x2="16.3221" y2="18.9203" gradientUnits="userSpaceOnUse">
      <stop stop-color="#97C72F"/>
      <stop offset="1" stop-color="#1CA2CC"/>
    </linearGradient>
  </defs>
</svg>
