<svg xmlns="http://www.w3.org/2000/svg" width="14" height="15" viewBox="0 0 14 15" fill="none">
  <path d="M7.7 5.1793H6.3V3.7793H7.7V5.1793ZM7.7 6.5793H6.3V10.7793H7.7V6.5793ZM7 1.6793C3.9123 1.6793 1.4 4.1916 1.4 7.2793C1.4 10.367 3.9123 12.8793 7 12.8793C10.0877 12.8793 12.6 10.367 12.6 7.2793C12.6 4.1916 10.0877 1.6793 7 1.6793ZM7 0.279297C10.8661 0.279297 14 3.4132 14 7.2793C14 11.1454 10.8661 14.2793 7 14.2793C3.1339 14.2793 0 11.1454 0 7.2793C0 3.4132 3.1339 0.279297 7 0.279297Z" fill="#2A3F54"/>
</svg>
