<svg xmlns="http://www.w3.org/2000/svg" width="14" height="14" viewBox="0 0 14 14" fill="none">
  <path d="M1.22781 6.11929L6.19006 6.11929L6.19006 1.18275C6.18655 1.0702 6.2058 0.958098 6.24667 0.853168C6.28754 0.748239 6.34918 0.652643 6.42789 0.572113C6.59836 0.401638 6.82958 0.305866 7.07066 0.305866C7.31175 0.305866 7.54297 0.401638 7.71344 0.572114C7.79375 0.64942 7.85741 0.742323 7.90051 0.845118C7.94362 0.947914 7.96527 1.05843 7.96413 1.1699L7.93199 6.13857H12.9328C13.1424 6.13628 13.3449 6.2145 13.4984 6.35712C13.6689 6.52759 13.7647 6.75881 13.7647 6.99989C13.7647 7.24098 13.6689 7.4722 13.4984 7.64267C13.4199 7.72799 13.3245 7.79605 13.2183 7.84252C13.1121 7.889 12.9973 7.91288 12.8814 7.91264L7.95127 7.8805L7.95127 12.8299C7.95306 12.9403 7.93296 13.05 7.89214 13.1526C7.85132 13.2552 7.79059 13.3487 7.71344 13.4277C7.54297 13.5982 7.31175 13.6939 7.07066 13.6939C6.82958 13.6939 6.59836 13.5982 6.42789 13.4277C6.34758 13.3504 6.28392 13.2575 6.24081 13.1547C6.19771 13.0519 6.17606 12.9414 6.1772 12.8299L6.20934 7.86122L1.20853 7.86122C0.998946 7.86352 0.796476 7.78529 0.642883 7.64267C0.472407 7.4722 0.376635 7.24098 0.376635 6.9999C0.376635 6.75881 0.472407 6.52759 0.642883 6.35712C0.799078 6.20478 1.00927 6.11929 1.22781 6.11929Z" fill="#314456"/>
</svg>
