<svg xmlns="http://www.w3.org/2000/svg" width="16" height="17" viewBox="0 0 16 17" fill="none">
  <path fill-rule="evenodd" clip-rule="evenodd" d="M1.5 1.75C1.36739 1.75 1.24021 1.80268 1.14645 1.89645C1.05268 1.99021 1 2.11739 1 2.25V15.25C1 15.3826 1.05268 15.5098 1.14645 15.6036C1.24021 15.6973 1.36739 15.75 1.5 15.75H14.5C14.6326 15.75 14.7598 15.6973 14.8536 15.6036C14.9473 15.5098 15 15.3826 15 15.25V4.664C15 4.53165 14.9475 4.40471 14.854 4.311L12.439 1.896C12.3453 1.80253 12.2184 1.75003 12.086 1.75H1.5ZM0 2.25C0 1.85218 0.158035 1.47064 0.43934 1.18934C0.720644 0.908035 1.10218 0.75 1.5 0.75H12.086C12.4837 0.75035 12.865 0.908615 13.146 1.19L15.561 3.604C15.842 3.8852 15.9999 4.26645 16 4.664V15.25C16 15.6478 15.842 16.0294 15.5607 16.3107C15.2794 16.592 14.8978 16.75 14.5 16.75H1.5C1.10218 16.75 0.720644 16.592 0.43934 16.3107C0.158035 16.0294 0 15.6478 0 15.25V2.25Z" fill="#fff"/>
  <path fill-rule="evenodd" clip-rule="evenodd" d="M3.5 9.75C3.5 9.35218 3.65804 8.97064 3.93934 8.68934C4.22064 8.40804 4.60218 8.25 5 8.25H11C11.3978 8.25 11.7794 8.40804 12.0607 8.68934C12.342 8.97064 12.5 9.35218 12.5 9.75V16.75H11.5V9.75C11.5 9.61739 11.4473 9.49021 11.3536 9.39645C11.2598 9.30268 11.1326 9.25 11 9.25H5C4.86739 9.25 4.74021 9.30268 4.64645 9.39645C4.55268 9.49021 4.5 9.61739 4.5 9.75V16.75H3.5V9.75ZM4 3.75C4 4.14782 4.15804 4.52936 4.43934 4.81066C4.72064 5.09196 5.10218 5.25 5.5 5.25H9.5C9.89782 5.25 10.2794 5.09196 10.5607 4.81066C10.842 4.52936 11 4.14782 11 3.75V1.75C11 1.61739 10.9473 1.49021 10.8536 1.39645C10.7598 1.30268 10.6326 1.25 10.5 1.25C10.3674 1.25 10.2402 1.30268 10.1464 1.39645C10.0527 1.49021 10 1.61739 10 1.75V3.75C10 3.88261 9.94732 4.00979 9.85355 4.10355C9.75979 4.19732 9.63261 4.25 9.5 4.25H5.5C5.36739 4.25 5.24021 4.19732 5.14645 4.10355C5.05268 4.00979 5 3.88261 5 3.75V1.75C5 1.61739 4.94732 1.49021 4.85355 1.39645C4.75979 1.30268 4.63261 1.25 4.5 1.25C4.36739 1.25 4.24021 1.30268 4.14645 1.39645C4.05268 1.49021 4 1.61739 4 1.75V3.75Z" fill="#fff"/>
  <defs>
    <linearGradient id="paint0_linear_2499_561" x1="8" y1="0.75" x2="8" y2="16.75" gradientUnits="userSpaceOnUse">
      <stop stop-color="#84C030"/>
      <stop offset="1" stop-color="#23A4BF"/>
    </linearGradient>
    <linearGradient id="paint1_linear_2499_561" x1="8" y1="1.25" x2="8" y2="16.75" gradientUnits="userSpaceOnUse">
      <stop stop-color="#84C030"/>
      <stop offset="1" stop-color="#23A4BF"/>
    </linearGradient>
  </defs>
</svg>
